<svg xmlns="http://www.w3.org/2000/svg" viewBox="0 0 283.12 149.74"><defs><style>.cls-1{fill:#04d9c3;}.cls-2{fill:#f2dea3;}</style></defs><g id="Camada_2" data-name="Camada 2"><g id="Camada_1-2" data-name="Camada 1"><path class="cls-1" d="M52.36,15.55H50.21q-15.9,0-24.75,8T16.62,51.64c0,4.41.41,7.48,1.25,9.2a15.81,15.81,0,0,1,1.25,2.95q-9.65,0-14.38-4T0,46.46A44.21,44.21,0,0,1,6.25,23.32Q12.51,12.87,26.18,6.43T60.93,0A164.55,164.55,0,0,1,86.31,2.14a120.67,120.67,0,0,0,20.37,2A54.89,54.89,0,0,0,127.4.36Q127,12,121.51,17.51t-16.44,5.54a74.62,74.62,0,0,1-11.44-.89q-5.72-.9-16.26-3L52.71,133.84H27Z"/><path class="cls-1" d="M98.34,32.89h14.12L111.18,39a39.89,39.89,0,0,1,6-4.51,11.37,11.37,0,0,1,5.84-1.57,6.12,6.12,0,0,1,5,2.16,7.85,7.85,0,0,1,1.81,5.19,7.4,7.4,0,0,1-1.86,5,6.52,6.52,0,0,1-5.2,2.16c-1.44,0-2.4-.34-2.89-1a7.82,7.82,0,0,1-1.13-3,8.33,8.33,0,0,0-.59-1.86,1.08,1.08,0,0,0-1.07-.59,6.79,6.79,0,0,0-3.48.83,24.05,24.05,0,0,0-3.68,2.89l-7.84,37.26H88Z"/><path class="cls-1" d="M131,78.67q-3.74-3.83-3.73-12a44.94,44.94,0,0,1,2.89-15.24,35.13,35.13,0,0,1,8.63-13.53,19,19,0,0,1,13.67-5.54c2.68,0,4.68.46,6,1.37a4.24,4.24,0,0,1,2,3.63v.69l1.08-5.2h14.12l-7.06,33.33a12.22,12.22,0,0,0-.39,3.14q0,4.22,4,4.21A5.91,5.91,0,0,0,176.91,71a19.22,19.22,0,0,0,3.19-6.66h4.12q-3.63,10.59-9,14.36a18.49,18.49,0,0,1-10.74,3.77,9.38,9.38,0,0,1-6.62-2.3,10.34,10.34,0,0,1-3-6.71A27.09,27.09,0,0,1,148.58,80a13.79,13.79,0,0,1-8.28,2.5A12.44,12.44,0,0,1,131,78.67Zm20.53-8a12.09,12.09,0,0,0,3.29-6.32l4.7-22.16a4,4,0,0,0-1-2.5,3.66,3.66,0,0,0-3-1.22q-3.92,0-7.06,4.56a36.23,36.23,0,0,0-4.9,11,43.64,43.64,0,0,0-1.76,11.32q0,4.91,1.42,6.27A4.81,4.81,0,0,0,146.67,73,7.07,7.07,0,0,0,151.52,70.68Z"/><path class="cls-1" d="M182.4,79.6c-2.12-1.92-3.19-4.82-3.19-8.67a22.85,22.85,0,0,1,.5-4.71l7-33.33h14.12l-7.06,33.33a20.31,20.31,0,0,0-.49,3.53q0,3.24,3.33,3.24,4.51,0,8.39-5.69a48.85,48.85,0,0,0,6.22-13.53,48.18,48.18,0,0,0,2.35-13.53c-.13.33-.55.58-1.27.74a8.77,8.77,0,0,1-1.86.24,2.88,2.88,0,0,1-2.6-1.56,6.63,6.63,0,0,1-.93-3.44,5.06,5.06,0,0,1,1.52-3.82A6.31,6.31,0,0,1,213,30.93a5.1,5.1,0,0,1,4.7,2.4,11.59,11.59,0,0,1,1.47,6.13,65.21,65.21,0,0,1-3,18.87,44.9,44.9,0,0,1-9.31,17.11,20,20,0,0,1-15.59,7Q185.58,82.49,182.4,79.6Z"/><path class="cls-1" d="M223.43,78.72c-2.69-2.51-4-6.45-4-11.81A48.61,48.61,0,0,1,222.05,52a34.56,34.56,0,0,1,8.63-14.07A20.69,20.69,0,0,1,245.87,32q10.78,0,10.79,9.41a17.58,17.58,0,0,1-3.14,10.1,23.14,23.14,0,0,1-8.33,7.4,27,27,0,0,1-11.08,3.18c-.13,2-.2,3.27-.2,3.93q0,4.8,1.67,6.51T241,74.26A16.33,16.33,0,0,0,250,71.81a43.6,43.6,0,0,0,8.28-7.45h3.34q-10.89,18.14-27,18.13Q227.44,82.49,223.43,78.72Zm18.38-23.87a18,18,0,0,0,5.29-6,15.56,15.56,0,0,0,2-7.65q0-4-2.45-4-3.53,0-6.91,6.18a47.19,47.19,0,0,0-4.86,14A12.93,12.93,0,0,0,241.81,54.85Z"/><path class="cls-1" d="M260.23,79.5c-1.92-2-2.89-5-2.89-9a33.55,33.55,0,0,1,.79-6.37l10.49-49.11,14.5-2L271.85,66a11,11,0,0,0-.39,2.84q0,3.91,4,3.92a7.91,7.91,0,0,0,3.13-.59,10.51,10.51,0,0,1-10.78,10.29A10.07,10.07,0,0,1,260.23,79.5Z"/><path class="cls-2" d="M86.76,97.7h9.53l-1.06,5A11.5,11.5,0,0,1,103,99.82a7.51,7.51,0,0,1,5.89,2.44c1.45,1.64,2.18,4.3,2.18,8a38.39,38.39,0,0,1-1.52,10.55,21,21,0,0,1-5.16,9.06,12.77,12.77,0,0,1-9.59,3.73q-4.23,0-5.62-2.38l-3.43,16.14-10,2.38ZM98,124.88a20.32,20.32,0,0,0,3-7.11,34.17,34.17,0,0,0,1-7.7q0-5.49-3.3-5.49a4.23,4.23,0,0,0-2.42.86,7.81,7.81,0,0,0-2.15,2.38l-3.9,18.51a2.35,2.35,0,0,0,2.52,1.52A6.22,6.22,0,0,0,98,124.88Z"/><path class="cls-2" d="M114.1,131.62c-1.3-1.32-1.95-3.31-1.95-6a23.27,23.27,0,0,1,.53-4.3l7.08-33.12,9.78-1.33-7.6,35.71a8,8,0,0,0-.27,2.11,2.43,2.43,0,0,0,.63,1.89,3.14,3.14,0,0,0,2.08.56,5.07,5.07,0,0,0,3.58-1.62,9.32,9.32,0,0,0,2.38-4.2h2.77q-2.45,7.14-6.28,9.69a13.67,13.67,0,0,1-7.6,2.54A6.88,6.88,0,0,1,114.1,131.62Z"/><path class="cls-2" d="M132,131c-1.68-1.72-2.51-4.41-2.51-8.07a30.2,30.2,0,0,1,2-10.28,23.79,23.79,0,0,1,5.81-9.13,12.83,12.83,0,0,1,9.23-3.73,7.12,7.12,0,0,1,4,.92,2.87,2.87,0,0,1,1.32,2.45v.46l.73-3.5h9.52l-4.76,22.48a8.47,8.47,0,0,0-.26,2.11c0,1.9.9,2.85,2.71,2.85a4,4,0,0,0,3.2-1.72,12.92,12.92,0,0,0,2.15-4.5h2.78q-2.44,7.14-6,9.69a12.45,12.45,0,0,1-7.24,2.54,6.29,6.29,0,0,1-4.46-1.55,6.9,6.9,0,0,1-2-4.53,18.65,18.65,0,0,1-4.26,4.4,9.37,9.37,0,0,1-5.59,1.68A8.43,8.43,0,0,1,132,131Zm13.85-5.39a8.13,8.13,0,0,0,2.21-4.27l3.18-14.94a2.72,2.72,0,0,0-.66-1.69,2.47,2.47,0,0,0-2-.82c-1.77,0-3.35,1-4.76,3.07a24.28,24.28,0,0,0-3.31,7.41,29.37,29.37,0,0,0-1.19,7.63q0,3.31,1,4.23a3.24,3.24,0,0,0,2.35.93A4.79,4.79,0,0,0,145.84,125.64Z"/><path class="cls-2" d="M183.06,131.46a7.84,7.84,0,0,1-1.88-5.33,17.21,17.21,0,0,1,.33-3.14c.22-1.17.45-2.3.69-3.4s.41-1.81.5-2.12q.53-2.31,1-4.56a18.76,18.76,0,0,0,.46-3.64c0-2.25-.79-3.37-2.38-3.37a3.81,3.81,0,0,0-3,1.69,13,13,0,0,0-2.11,4.39l-4.5,21.23H162.6l7-33.06h9.52l-.73,3.44a10.09,10.09,0,0,1,7.74-3.71,7.53,7.53,0,0,1,5.35,1.85q2,1.86,2,5.62a22.15,22.15,0,0,1-.47,4.27c-.3,1.57-.75,3.47-1.32,5.72-.35,1.37-.67,2.7-1,4a15.66,15.66,0,0,0-.43,3.07,3.11,3.11,0,0,0,.6,2,2.5,2.5,0,0,0,2,.73,3.91,3.91,0,0,0,3.17-1.42,16.35,16.35,0,0,0,2.38-4.4h2.78q-2.44,7.27-5.65,9.75A10.72,10.72,0,0,1,189,133.6Q184.95,133.6,183.06,131.46Z"/><path class="cls-2" d="M216.45,131.46a7.84,7.84,0,0,1-1.88-5.33,17.21,17.21,0,0,1,.33-3.14c.22-1.17.45-2.3.69-3.4s.41-1.81.5-2.12q.53-2.31,1-4.56a18.76,18.76,0,0,0,.46-3.64c0-2.25-.79-3.37-2.38-3.37a3.81,3.81,0,0,0-3,1.69A13,13,0,0,0,210,112l-4.5,21.23H196l7-33.06h9.52l-.73,3.44a10.09,10.09,0,0,1,7.74-3.71,7.53,7.53,0,0,1,5.35,1.85q2,1.86,2,5.62a22.15,22.15,0,0,1-.47,4.27c-.3,1.57-.75,3.47-1.32,5.72-.35,1.37-.67,2.7-1,4a15.66,15.66,0,0,0-.43,3.07,3.11,3.11,0,0,0,.6,2,2.49,2.49,0,0,0,2.05.73,3.91,3.91,0,0,0,3.17-1.42,16.35,16.35,0,0,0,2.38-4.4h2.78q-2.44,7.27-5.65,9.75a10.72,10.72,0,0,1-6.65,2.48Q218.34,133.6,216.45,131.46Z"/><path class="cls-2" d="M233.74,131.06c-1.81-1.7-2.71-4.35-2.71-8a32.76,32.76,0,0,1,1.79-10,23.33,23.33,0,0,1,5.82-9.49,13.94,13.94,0,0,1,10.24-4q7.27,0,7.28,6.35a11.85,11.85,0,0,1-2.12,6.81,15.53,15.53,0,0,1-5.62,5,18,18,0,0,1-7.47,2.15c-.09,1.32-.13,2.21-.13,2.65,0,2.16.37,3.62,1.12,4.39a4.91,4.91,0,0,0,3.64,1.16,11,11,0,0,0,6.11-1.65,29.54,29.54,0,0,0,5.59-5h2.25q-7.33,12.24-18.18,12.23C238.08,133.6,235.55,132.76,233.74,131.06Zm12.4-16.1a12,12,0,0,0,3.57-4,10.53,10.53,0,0,0,1.36-5.16c0-1.81-.56-2.71-1.66-2.71-1.58,0-3.14,1.39-4.66,4.16a31.74,31.74,0,0,0-3.27,9.46A8.72,8.72,0,0,0,246.14,115Z"/><path class="cls-2" d="M261.78,100.15h9.52l-.86,4.1a26.44,26.44,0,0,1,4.06-3,7.69,7.69,0,0,1,3.94-1.06,4.14,4.14,0,0,1,3.34,1.45,5.3,5.3,0,0,1,1.22,3.51,5,5,0,0,1-1.26,3.37,4.36,4.36,0,0,1-3.5,1.45,2.27,2.27,0,0,1-1.95-.69,5.14,5.14,0,0,1-.76-2,5.92,5.92,0,0,0-.4-1.25.73.73,0,0,0-.73-.4,4.61,4.61,0,0,0-2.34.56,16.61,16.61,0,0,0-2.48,2l-5.29,25.13h-9.52Z"/></g></g></svg>