<svg xmlns="http://www.w3.org/2000/svg" viewBox="0 0 406.38 193.4"><defs><style>.cls-1{fill:#fff;}.cls-2{fill:#04d9c3;}</style></defs><g id="Camada_2" data-name="Camada 2"><g id="Camada_1-2" data-name="Camada 1"><path class="cls-1" d="M68.91,20.46H66.09q-20.94,0-32.57,10.47T21.87,68q0,8.7,1.65,12.11A20.71,20.71,0,0,1,25.17,84Q12.46,84,6.23,78.67T0,61.15A58.21,58.21,0,0,1,8.23,30.69Q16.47,16.93,34.46,8.47T80.2,0a215.09,215.09,0,0,1,33.4,2.82,159.61,159.61,0,0,0,26.81,2.59A72.31,72.31,0,0,0,167.69.47q-.47,15.29-7.76,22.58t-21.64,7.29a96.6,96.6,0,0,1-15-1.18q-7.53-1.17-21.4-4l-32.46,151H35.51Z"/><path class="cls-1" d="M123.15,50.42h21.63l-1.95,9.31a60.79,60.79,0,0,1,9.24-6.91,17.52,17.52,0,0,1,8.94-2.4,9.39,9.39,0,0,1,7.59,3.3,12,12,0,0,1,2.78,8,11.38,11.38,0,0,1-2.85,7.67,10,10,0,0,1-8,3.3c-2.2,0-3.68-.52-4.43-1.57a12.07,12.07,0,0,1-1.73-4.59,13.77,13.77,0,0,0-.9-2.85,1.68,1.68,0,0,0-1.65-.9A10.4,10.4,0,0,0,146.51,64a36.88,36.88,0,0,0-5.63,4.44l-12,57.09H107.22Z"/><path class="cls-1" d="M173.18,120.59q-5.7-5.86-5.71-18.34a68.5,68.5,0,0,1,4.44-23.36,53.79,53.79,0,0,1,13.22-20.74,29.17,29.17,0,0,1,21-8.49c4.11,0,7.16.71,9.17,2.11a6.48,6.48,0,0,1,3,5.56v1.05l1.65-8h21.64L230.73,101.5a18.7,18.7,0,0,0-.6,4.81q0,6.47,6.16,6.46a9.07,9.07,0,0,0,7.29-3.9,29.48,29.48,0,0,0,4.88-10.22h6.31q-5.55,16.23-13.75,22t-16.45,5.79q-6.31,0-10.14-3.53t-4.58-10.3a42.09,42.09,0,0,1-9.7,10,21.2,21.2,0,0,1-12.69,3.83A19.15,19.15,0,0,1,173.18,120.59Zm31.48-12.25a18.53,18.53,0,0,0,5-9.69l7.21-34a6.1,6.1,0,0,0-1.5-3.83A5.63,5.63,0,0,0,210.75,59q-6,0-10.82,7a55.07,55.07,0,0,0-7.51,16.83,66.25,66.25,0,0,0-2.71,17.35q0,7.51,2.18,9.62a7.39,7.39,0,0,0,5.33,2.1C199.73,111.87,202.21,110.7,204.66,108.34Z"/><path class="cls-1" d="M252,122q-4.87-4.42-4.88-13.29a35.41,35.41,0,0,1,.75-7.22l10.82-51.08h21.64L269.5,101.5a31.69,31.69,0,0,0-.75,5.41q0,5,5.1,5,6.91,0,12.85-8.71a74.51,74.51,0,0,0,9.54-20.74q3.61-12,3.61-20.74c-.2.51-.85.88-2,1.13a13.34,13.34,0,0,1-2.86.38,4.41,4.41,0,0,1-4-2.41,10.11,10.11,0,0,1-1.43-5.26A7.82,7.82,0,0,1,292,49.66q2.32-2.25,7-2.25c3.3,0,5.71,1.23,7.21,3.68a17.79,17.79,0,0,1,2.25,9.39,100.33,100.33,0,0,1-4.65,28.93,68.89,68.89,0,0,1-14.28,26.22,30.67,30.67,0,0,1-23.89,10.82Q256.88,126.45,252,122Z"/><path class="cls-1" d="M314.87,120.66q-6.15-5.77-6.16-18.11a74.46,74.46,0,0,1,4.06-22.83A53,53,0,0,1,326,58.15q9.17-9.09,23.29-9.09,16.53,0,16.53,14.43A26.85,26.85,0,0,1,361,79a35.46,35.46,0,0,1-12.77,11.35,41.31,41.31,0,0,1-17,4.88q-.3,4.52-.3,6,0,7.36,2.56,10t8.26,2.62a25,25,0,0,0,13.9-3.75,67.45,67.45,0,0,0,12.7-11.42h5.1q-16.67,27.8-41.32,27.8Q321,126.45,314.87,120.66Zm28.18-36.59a27.53,27.53,0,0,0,8.11-9.16,23.87,23.87,0,0,0,3.08-11.72q0-6.16-3.75-6.16-5.42,0-10.6,9.46A72.52,72.52,0,0,0,332.45,88,19.78,19.78,0,0,0,343.05,84.07Z"/><path class="cls-1" d="M371.29,121.86q-4.43-4.58-4.43-13.74a52.19,52.19,0,0,1,1.2-9.77l16.08-75.28,22.24-3L389.1,101.2a17,17,0,0,0-.6,4.36q0,6,6.16,6a12.17,12.17,0,0,0,4.81-.9q-.6,7.52-5.34,11.64a16.42,16.42,0,0,1-11.19,4.14A15.47,15.47,0,0,1,371.29,121.86Z"/><path class="cls-2" d="M99.05,143.56h9.12l-1,4.75a11,11,0,0,1,7.41-2.72,7.17,7.17,0,0,1,5.63,2.34c1.4,1.56,2.09,4.11,2.09,7.66a36.64,36.64,0,0,1-1.45,10.1,20.29,20.29,0,0,1-4.94,8.68,12.29,12.29,0,0,1-9.19,3.58q-4,0-5.38-2.28L98,191.12l-9.56,2.28Zm10.74,26a19.33,19.33,0,0,0,2.91-6.81,32.92,32.92,0,0,0,.92-7.38q0-5.25-3.17-5.25a4,4,0,0,0-2.31.82,7.51,7.51,0,0,0-2.06,2.28L102.35,171a2.23,2.23,0,0,0,2.4,1.46A6,6,0,0,0,109.79,169.59Z"/><path class="cls-2" d="M125.24,176.05q-1.87-1.91-1.87-5.7a21.82,21.82,0,0,1,.51-4.12l6.77-31.73,9.37-1.26-7.28,34.19a7.84,7.84,0,0,0-.25,2,2.31,2.31,0,0,0,.6,1.8,2.94,2.94,0,0,0,2,.54,4.78,4.78,0,0,0,3.42-1.55,8.74,8.74,0,0,0,2.28-4h2.66q-2.34,6.84-6,9.28a13.18,13.18,0,0,1-7.29,2.44A6.58,6.58,0,0,1,125.24,176.05Z"/><path class="cls-2" d="M142.37,175.48Q140,173,140,167.75a28.85,28.85,0,0,1,1.87-9.85,22.65,22.65,0,0,1,5.57-8.74,12.28,12.28,0,0,1,8.83-3.57,6.84,6.84,0,0,1,3.87.88,2.74,2.74,0,0,1,1.26,2.35v.44l.7-3.36h9.12l-4.56,21.53a7.84,7.84,0,0,0-.25,2c0,1.82.86,2.72,2.59,2.72a3.83,3.83,0,0,0,3.07-1.64,12.27,12.27,0,0,0,2.06-4.31h2.66q-2.34,6.84-5.79,9.28A12,12,0,0,1,164,178a6.07,6.07,0,0,1-4.27-1.49,6.64,6.64,0,0,1-1.93-4.34,17.86,17.86,0,0,1-4.09,4.21,8.9,8.9,0,0,1-5.35,1.62A8.07,8.07,0,0,1,142.37,175.48Zm13.26-5.17a7.75,7.75,0,0,0,2.12-4.08l3-14.31a2.59,2.59,0,0,0-.63-1.62,2.38,2.38,0,0,0-2-.79q-2.53,0-4.56,3a23.24,23.24,0,0,0-3.17,7.09,28,28,0,0,0-1.14,7.31c0,2.11.31,3.47.92,4.06a3.11,3.11,0,0,0,2.25.88A4.53,4.53,0,0,0,155.63,170.31Z"/><path class="cls-2" d="M191.28,175.89a7.46,7.46,0,0,1-1.8-5.1,15.68,15.68,0,0,1,.32-3c.21-1.12.43-2.2.66-3.26s.39-1.73.48-2c.33-1.47.65-2.93.95-4.37a18.41,18.41,0,0,0,.44-3.48c0-2.15-.76-3.23-2.28-3.23a3.64,3.64,0,0,0-2.91,1.62,12.33,12.33,0,0,0-2,4.21l-4.31,20.33h-9.11l6.71-31.67h9.12l-.7,3.3a9.64,9.64,0,0,1,7.41-3.55,7.24,7.24,0,0,1,5.13,1.77,7,7,0,0,1,1.9,5.38,21,21,0,0,1-.45,4.09c-.29,1.5-.71,3.32-1.26,5.48-.34,1.31-.65,2.58-.92,3.83a14.14,14.14,0,0,0-.41,2.94,3,3,0,0,0,.57,2,2.41,2.41,0,0,0,2,.69,3.75,3.75,0,0,0,3-1.36,16,16,0,0,0,2.28-4.21h2.66q-2.34,7-5.41,9.34A10.33,10.33,0,0,1,197,178Q193.1,178,191.28,175.89Z"/><path class="cls-2" d="M223.26,175.89a7.46,7.46,0,0,1-1.8-5.1,15.68,15.68,0,0,1,.32-3c.21-1.12.43-2.2.66-3.26s.39-1.73.48-2c.33-1.47.65-2.93.94-4.37a17.75,17.75,0,0,0,.45-3.48c0-2.15-.76-3.23-2.28-3.23a3.64,3.64,0,0,0-2.91,1.62,12.33,12.33,0,0,0-2,4.21l-4.31,20.33h-9.12l6.72-31.67h9.12l-.7,3.3a9.64,9.64,0,0,1,7.41-3.55,7.24,7.24,0,0,1,5.13,1.77,7,7,0,0,1,1.9,5.38,21,21,0,0,1-.45,4.09c-.29,1.5-.71,3.32-1.26,5.48-.34,1.31-.65,2.58-.92,3.83a14.14,14.14,0,0,0-.41,2.94,3,3,0,0,0,.57,2,2.41,2.41,0,0,0,2,.69,3.75,3.75,0,0,0,3-1.36,16,16,0,0,0,2.28-4.21h2.66q-2.34,7-5.41,9.34a10.33,10.33,0,0,1-6.37,2.38Q225.08,178,223.26,175.89Z"/><path class="cls-2" d="M239.82,175.51q-2.59-2.44-2.59-7.63a31.36,31.36,0,0,1,1.71-9.63,22.36,22.36,0,0,1,5.57-9.09,13.36,13.36,0,0,1,9.81-3.83q7,0,7,6.08a11.33,11.33,0,0,1-2,6.52,14.94,14.94,0,0,1-5.38,4.79,17.28,17.28,0,0,1-7.15,2.05c-.09,1.27-.13,2.11-.13,2.54,0,2.07.36,3.47,1.07,4.21a4.7,4.7,0,0,0,3.49,1.11A10.5,10.5,0,0,0,257,171a28.69,28.69,0,0,0,5.35-4.81h2.15q-7,11.72-17.42,11.72A10.25,10.25,0,0,1,239.82,175.51Zm11.88-15.42a11.71,11.71,0,0,0,3.42-3.87,10.06,10.06,0,0,0,1.29-4.93c0-1.74-.52-2.6-1.58-2.6q-2.28,0-4.46,4a30.24,30.24,0,0,0-3.14,9A8.37,8.37,0,0,0,251.7,160.09Z"/><path class="cls-2" d="M266.67,145.9h9.12l-.82,3.93a24.55,24.55,0,0,1,3.89-2.91,7.33,7.33,0,0,1,3.77-1,4,4,0,0,1,3.2,1.4,5,5,0,0,1,1.17,3.35,4.79,4.79,0,0,1-1.2,3.23,4.2,4.2,0,0,1-3.36,1.39,2.19,2.19,0,0,1-1.87-.66,5.19,5.19,0,0,1-.73-1.93,5.15,5.15,0,0,0-.38-1.2.7.7,0,0,0-.69-.39,4.46,4.46,0,0,0-2.25.54,16.58,16.58,0,0,0-2.38,1.87l-5.06,24.07H260Z"/></g></g></svg>